<svg version="1.1" id="Layer_1" xmlns="http://www.w3.org/2000/svg" xmlns:xlink="http://www.w3.org/1999/xlink" x="0px" y="0px"
	 width="100%" viewBox="0 0 1056 206" enable-background="new 0 0 1056 206" xml:space="preserve">
<path fill="#000000" opacity="1.000000" stroke="none" 
	d="
M726.000000,207.000000 
	C484.047791,207.000000 242.595612,207.000000 1.071706,207.000000 
	C1.071706,138.394791 1.071706,69.789490 1.071706,1.092095 
	C353.000000,1.092095 705.000000,1.092095 1056.967041,1.092095 
	C1056.967041,69.737793 1056.967041,138.368912 1056.967041,207.000000 
	C946.789368,207.000000 836.644714,207.000000 726.000000,207.000000 
M83.325325,186.824112 
	C94.548378,186.828705 105.771423,186.833298 117.844727,186.628738 
	C117.844315,165.723816 117.843895,144.818893 118.207047,123.282646 
	C120.948883,115.296539 126.588249,112.390297 132.368118,112.073860 
	C141.041382,111.599022 147.136688,117.227173 149.018570,127.908722 
	C149.012146,146.145615 148.981766,164.382584 149.046188,182.619217 
	C149.051178,184.031006 149.721985,185.440445 150.999924,186.996979 
	C161.166000,186.996918 171.334885,186.861359 181.496658,187.070251 
	C185.055634,187.143417 186.369293,185.937653 186.020889,182.474075 
	C185.560974,177.901764 185.249741,173.314529 185.016037,168.579376 
	C185.016037,168.579376 184.928879,168.389053 185.516541,168.024536 
	C185.320847,167.552826 185.125168,167.081100 185.017365,166.423813 
	C185.017365,166.423813 184.876358,166.274551 184.990616,165.408798 
	C185.311783,163.640823 185.632965,161.872833 186.230850,160.777908 
	C186.989120,162.533371 187.449951,164.507416 188.553558,166.009094 
	C196.173431,176.377548 205.750259,184.250214 218.353073,187.680603 
	C232.945892,191.652649 247.237000,190.372910 261.511780,185.316422 
	C271.880768,181.643433 278.979889,174.552734 285.291931,165.492783 
	C293.070984,178.569565 303.825684,186.648361 318.730438,189.111450 
	C333.676208,191.581314 346.832336,188.551575 358.904236,178.071075 
	C359.436981,180.944992 359.969696,183.818893 360.560272,187.004791 
	C371.023193,187.004791 381.634521,186.937531 392.244019,187.049393 
	C395.097687,187.079483 396.155151,185.953140 396.000824,183.220673 
	C395.630035,176.654495 395.226624,170.087006 395.057953,163.514359 
	C395.003418,161.390182 395.638824,159.248306 395.974915,157.884583 
	C399.496033,169.649246 407.203857,178.204346 417.643158,183.956039 
	C422.565979,186.668350 428.481750,187.865448 434.100647,188.971878 
	C449.105286,191.926437 462.228821,188.223114 473.471527,177.039749 
	C473.666168,177.133255 473.860809,177.226776 473.992157,177.603210 
	C473.992157,177.603210 474.144379,177.849930 474.027466,178.728821 
	C474.066406,180.200592 474.105347,181.672348 473.993225,183.382309 
	C473.993225,183.382309 474.067169,183.654495 473.473419,183.984207 
	C473.671326,184.438538 473.869263,184.892868 473.990662,185.526123 
	C473.990662,185.526123 474.130493,185.661484 474.136353,186.614960 
	C485.745789,186.614960 497.355225,186.614960 508.845520,186.614960 
	C508.845520,183.927826 508.845520,181.460449 508.986023,178.065979 
	C508.935822,152.057434 508.885620,126.048897 508.981842,99.128815 
	C508.599060,95.081322 508.216278,91.033821 507.587097,86.152153 
	C496.859894,86.101837 486.132660,86.029785 475.405579,86.048004 
	C474.655792,86.049271 473.907135,86.719536 473.005157,87.848328 
	C473.005157,89.884079 473.005157,91.919830 473.005157,93.703682 
	C466.840424,90.700447 461.465485,87.119034 455.551788,85.472450 
	C449.662994,83.832802 443.242157,83.857056 437.038574,83.662674 
	C430.584076,83.460426 424.234772,84.380867 418.903748,88.577530 
	C413.908051,92.510254 408.290649,95.931259 404.207855,100.665009 
	C400.367706,105.117371 398.174622,110.990334 394.990448,116.717545 
	C394.990448,114.173981 394.990448,112.178802 395.769867,109.734711 
	C395.846466,80.311600 395.937988,50.888477 395.916901,21.465427 
	C395.916351,20.698935 394.685394,19.933325 393.100861,18.998468 
	C383.362610,18.992270 373.624084,18.949795 363.886444,19.022701 
	C362.569763,19.032560 361.257416,19.621826 360.007263,19.982718 
	C360.007263,19.982718 359.969727,19.917105 359.183807,20.324528 
	C359.122498,22.144144 359.011841,23.963638 359.007294,25.783400 
	C358.950531,48.512737 358.909149,71.242119 358.217957,93.719856 
	C348.462646,87.137245 338.197418,83.650421 325.934082,83.613449 
	C312.901672,83.574158 302.581329,87.828560 294.006378,96.723358 
	C289.643219,101.249290 286.580200,107.028595 283.124847,111.962326 
	C275.655457,91.681969 252.220612,83.356560 233.335419,83.699059 
	C209.733109,84.127121 194.367523,95.260094 184.349960,116.687233 
	C183.250351,102.710533 177.260544,93.175003 165.369736,87.851173 
	C144.458893,78.488823 127.015572,83.540283 112.883163,101.300873 
	C106.245346,88.688843 94.261986,85.008301 82.268318,83.413109 
	C69.774475,81.751404 58.479290,86.687195 49.400715,96.976730 
	C49.589294,93.188606 49.716011,90.643196 50.001652,87.202438 
	C49.266972,86.803078 48.532932,86.057762 47.797512,86.056389 
	C37.200504,86.036705 26.603312,86.117065 15.190736,86.036911 
	C14.793729,86.949158 14.065159,87.856827 14.052465,88.774391 
	C13.955819,95.760674 13.870928,102.751968 14.038671,109.735550 
	C14.176042,115.454620 14.930929,121.165413 14.926837,126.879524 
	C14.922601,132.795166 14.054883,138.711258 14.073506,144.625549 
	C14.095283,151.541199 14.901611,158.454254 14.927338,165.370071 
	C14.948718,171.117828 14.392147,176.872284 13.975245,182.615326 
	C13.748521,185.738571 14.730539,187.123795 18.152781,187.058533 
	C27.806244,186.874496 37.465725,187.023102 47.122089,186.946915 
	C48.034546,186.939728 48.941792,186.272598 49.988628,185.001968 
	C49.935013,165.024918 49.881397,145.047882 49.987064,124.339157 
	C52.909424,117.059547 57.457069,111.831810 66.050850,112.019905 
	C73.888603,112.191452 78.898315,116.321625 82.039673,125.985359 
	C82.026184,144.694580 81.992943,163.403839 82.041130,182.112900 
	C82.044540,183.440048 82.646629,184.765656 82.987572,186.022202 
	C82.987572,186.022202 82.917580,186.038559 83.325325,186.824112 
M513.085266,19.043304 
	C512.723633,19.816956 512.048462,20.589655 512.046082,21.364393 
	C511.987549,40.663471 511.984039,59.962818 512.045227,79.261879 
	C512.048462,80.271683 512.708801,81.279411 512.986816,82.544945 
	C512.986816,82.544945 513.130249,82.771271 513.012268,83.749901 
	C513.007996,116.358742 512.990845,148.967606 513.040405,181.576370 
	C513.042664,183.088898 513.641968,184.600494 513.968079,186.035767 
	C513.968079,186.035767 513.891357,186.040939 514.330078,186.810715 
	C524.116455,186.876709 533.910034,186.745865 543.685974,187.099915 
	C547.942444,187.254074 549.172913,185.446259 548.996948,181.700577 
	C548.626343,173.813293 548.298767,165.923965 547.903076,158.037994 
	C547.884583,157.669846 547.375916,157.326279 547.191040,156.310318 
	C548.079651,156.737503 549.528564,156.958099 549.773682,157.622620 
	C554.099548,169.352524 562.889587,176.927582 573.245972,183.016525 
	C587.483215,191.387161 602.770691,191.434799 618.201355,187.785294 
	C623.821533,186.456055 629.054138,183.487915 634.316711,181.327789 
	C629.728027,172.385773 625.716675,164.568619 621.728516,156.796753 
	C605.709351,163.882462 594.853760,162.184189 586.967163,152.439270 
	C581.540955,145.734406 580.982910,130.072083 585.868225,123.684647 
	C595.415222,111.202240 607.079834,110.127701 622.158691,117.392342 
	C625.989868,109.534935 629.830872,101.657204 633.736023,93.647949 
	C628.349426,87.404366 613.865601,82.338287 594.566223,83.595215 
	C571.514954,85.096489 556.459290,98.983368 547.093262,119.858459 
	C547.093262,117.920067 547.093262,115.981674 547.840820,113.603165 
	C547.845398,104.035004 547.849976,94.466850 548.007080,84.568787 
	C548.007080,84.568787 547.978577,84.206474 548.761963,83.754677 
	C548.838379,62.976486 548.921631,42.198303 548.951050,21.420048 
	C548.951782,20.920759 548.351990,20.420622 547.993469,19.985466 
	C547.993469,19.985466 548.056641,19.944351 547.668945,19.150612 
	C536.430542,19.156986 525.192200,19.163359 513.085266,19.043304 
M812.178955,19.352636 
	C812.120361,42.596771 812.053772,65.840912 812.043213,89.085060 
	C812.042908,89.758759 812.636902,90.432716 812.975830,91.874954 
	C813.027344,94.734627 811.538086,94.402390 809.848511,93.307259 
	C808.350952,92.336571 807.067871,90.980392 805.490295,90.196678 
	C796.788391,85.873611 788.053284,83.319756 777.811279,83.609772 
	C764.078064,83.998642 753.449707,89.132545 744.768738,98.892471 
	C740.943420,103.193260 738.376953,108.613739 735.280884,113.460350 
	C728.339233,99.558243 716.818481,90.995934 702.017151,86.461685 
	C693.193909,83.758751 684.140747,83.054184 674.991455,83.592812 
	C670.941345,83.831253 666.786133,84.050201 662.906067,85.110435 
	C644.731628,90.076683 630.819824,101.266182 624.553284,118.696442 
	C618.945190,134.295547 619.551270,150.740768 629.826904,165.443558 
	C635.543030,173.622437 642.570007,179.988953 651.716309,184.029663 
	C664.770996,189.797073 678.247070,190.964447 692.376953,189.158005 
	C705.445007,187.487320 716.737976,182.711334 725.987610,173.423981 
	C729.786743,169.609406 733.044373,165.255600 736.538635,161.158371 
	C740.076050,173.408829 749.237122,180.491089 759.938721,185.923462 
	C767.381714,189.701675 775.448975,190.553391 783.771606,190.050781 
	C795.442871,189.345917 805.176270,184.843643 813.010071,177.082016 
	C813.010071,180.341858 813.010071,183.601715 813.010071,186.726959 
	C824.984558,186.726959 836.388855,186.726959 847.995667,186.726959 
	C847.995667,177.814850 847.951538,169.177185 848.037903,160.540817 
	C848.052795,159.050522 848.621887,157.565796 848.991882,156.828247 
	C852.494507,166.053955 858.657166,173.116531 866.396912,179.114838 
	C878.274963,188.320267 891.843140,190.813293 906.371765,190.000626 
	C916.835449,189.415329 926.964294,186.957047 935.389038,180.789993 
	C941.257019,176.494507 945.812073,170.405457 950.991028,166.016403 
	C951.624573,170.134506 951.248108,174.783112 953.080322,178.271637 
	C958.668579,188.911285 972.800232,194.478561 985.742310,186.146515 
	C993.338928,181.255768 997.797241,169.353729 994.701111,161.123062 
	C991.193420,151.798096 984.535522,147.443176 975.018555,145.224213 
	C964.358704,142.738770 950.307678,154.364746 950.200256,162.978271 
	C943.723206,159.755005 937.209656,156.602295 930.783752,153.280106 
	C927.316223,151.487335 924.444824,151.320358 921.690613,154.671249 
	C920.282532,156.384369 918.319702,157.831635 916.324280,158.836227 
	C910.364136,161.836868 904.109558,161.943924 897.489502,161.132141 
	C886.685791,159.807358 880.750244,152.763702 882.532532,142.037415 
	C896.971497,142.037415 911.428467,142.037415 926.309631,142.816879 
	C933.342651,142.875473 940.376343,143.002945 947.408325,142.941742 
	C949.059021,142.927368 950.704224,142.275223 953.007751,141.532745 
	C953.338684,139.313446 954.175354,137.029449 953.901367,134.887527 
	C953.206055,129.452026 952.526733,123.921867 950.921387,118.712997 
	C946.407654,104.067451 937.849609,92.946686 922.645264,87.894188 
	C914.201233,85.088211 905.921448,83.204781 896.730103,83.675232 
	C887.968933,84.123680 880.070251,85.719574 872.476562,89.969048 
	C861.367920,96.185532 853.768738,105.236259 849.310913,117.085403 
	C849.111572,117.615250 847.854614,117.747253 847.849609,117.633675 
	C847.849426,85.099022 847.849243,52.564369 847.659729,19.166069 
	C836.118347,19.162441 824.576904,19.158813 812.178955,19.352636 
z"/>
<path fill="#FFDE5B" opacity="1.000000" stroke="none" 
	d="
M474.130493,185.661484 
	C474.130493,185.661484 473.990662,185.526123 474.085297,185.012787 
	C474.142334,184.217789 474.104736,183.936142 474.067169,183.654495 
	C474.067169,183.654495 473.993225,183.382309 474.291016,182.980957 
	C474.440643,181.003052 474.292511,179.426483 474.144409,177.849930 
	C474.144379,177.849930 473.992157,177.603210 473.973572,177.213593 
	C473.587280,176.832855 473.219543,176.841751 472.851837,176.850647 
	C462.228821,188.223114 449.105286,191.926437 434.100647,188.971878 
	C428.481750,187.865448 422.565979,186.668350 417.643158,183.956039 
	C407.203857,178.204346 399.496033,169.649246 395.950775,157.166779 
	C395.530457,155.649475 395.134277,154.849945 394.738098,154.050415 
	C394.034180,163.349731 394.148590,172.456772 393.919434,181.555176 
	C393.882050,183.039597 392.365295,185.731277 391.467957,185.758713 
	C381.536072,186.062210 371.591461,185.949677 361.442139,185.949677 
	C361.150238,182.317749 360.907501,179.297379 360.579071,175.210648 
	C359.215912,176.773499 358.630371,177.444824 358.044830,178.116150 
	C346.832336,188.551575 333.676208,191.581314 318.730438,189.111450 
	C303.825684,186.648361 293.070984,178.569565 285.291931,165.492783 
	C278.979889,174.552734 271.880768,181.643433 261.511780,185.316422 
	C247.237000,190.372910 232.945892,191.652649 218.353073,187.680603 
	C205.750259,184.250214 196.173431,176.377548 188.553558,166.009094 
	C187.449951,164.507416 186.989120,162.533371 186.013672,160.143951 
	C185.359390,158.993973 184.922302,158.477936 184.485199,157.961914 
	C184.204620,158.083405 183.924057,158.204880 183.643478,158.326355 
	C184.054443,160.975754 184.465393,163.625153 184.876358,166.274551 
	C184.876358,166.274551 185.017365,166.423813 184.903961,166.962143 
	C184.836670,167.796661 184.882782,168.092865 184.928879,168.389053 
	C184.928879,168.389053 185.016037,168.579376 184.686157,169.015106 
	C184.237244,173.590286 183.975266,177.732285 184.048584,181.868347 
	C184.098862,184.704468 183.414673,186.131958 180.189163,186.063766 
	C170.225769,185.853134 160.257263,185.884369 150.242554,185.368835 
	C150.187805,167.316376 150.209015,149.716660 150.130798,132.117371 
	C150.123169,130.401154 149.502487,128.687668 149.166367,126.972916 
	C147.136688,117.227173 141.041382,111.599022 132.368118,112.073860 
	C126.588249,112.390297 120.948883,115.296539 117.777397,123.942810 
	C117.232147,126.584335 117.022560,128.565369 117.015572,130.547104 
	C116.950485,148.993011 116.920242,167.439026 116.422318,185.926727 
	C104.949020,185.991821 93.933296,186.015198 82.917580,186.038574 
	C82.917580,186.038559 82.987572,186.022202 82.994408,185.582764 
	C83.001686,167.047028 83.027130,148.950638 82.966064,130.854553 
	C82.959549,128.924088 82.447517,126.995323 82.169991,125.065765 
	C78.898315,116.321625 73.888603,112.191452 66.050850,112.019905 
	C57.457069,111.831810 52.909424,117.059547 49.663044,125.030365 
	C49.226357,127.531029 49.020737,129.340210 49.015385,131.149994 
	C48.961411,149.392929 48.940254,167.635971 48.449287,185.928558 
	C39.186928,185.991608 30.371016,185.711472 21.588980,186.134567 
	C16.735310,186.368408 15.893733,184.515869 15.916151,180.174286 
	C16.076506,149.119171 16.001890,118.062843 16.470396,87.000717 
	C26.012621,86.993484 35.087154,86.930634 44.159565,87.041611 
	C46.057972,87.064835 47.948544,87.728989 49.842724,88.097786 
	C49.716011,90.643196 49.589294,93.188606 49.400715,96.976730 
	C58.479290,86.687195 69.774475,81.751404 82.268318,83.413109 
	C94.261986,85.008301 106.245346,88.688843 112.883163,101.300873 
	C127.015572,83.540283 144.458893,78.488823 165.369736,87.851173 
	C177.260544,93.175003 183.250351,102.710533 184.349960,116.687233 
	C194.367523,95.260094 209.733109,84.127121 233.335419,83.699059 
	C252.220612,83.356560 275.655457,91.681969 283.124847,111.962326 
	C286.580200,107.028595 289.643219,101.249290 294.006378,96.723358 
	C302.581329,87.828560 312.901672,83.574158 325.934082,83.613449 
	C338.197418,83.650421 348.462646,87.137245 358.829529,94.034973 
	C359.681244,93.784775 360.131805,93.219215 360.131134,92.654198 
	C360.102417,68.408470 360.033600,44.162788 359.969727,19.917105 
	C359.969727,19.917105 360.007263,19.982718 360.443817,20.025343 
	C371.941040,20.027256 383.001740,19.986546 394.329834,20.265789 
	C394.666962,22.571531 394.792572,24.557173 394.797852,26.543133 
	C394.871704,54.423267 394.929047,82.303452 394.990417,110.183617 
	C394.990448,112.178802 394.990448,114.173981 394.990448,116.717545 
	C398.174622,110.990334 400.367706,105.117371 404.207855,100.665009 
	C408.290649,95.931259 413.908051,92.510254 418.903748,88.577530 
	C424.234772,84.380867 430.584076,83.460426 437.038574,83.662674 
	C443.242157,83.857056 449.662994,83.832802 455.551788,85.472450 
	C461.465485,87.119034 466.840424,90.700447 473.005157,93.703682 
	C473.005157,91.919830 473.005157,89.884079 473.539917,87.454819 
	C485.327637,87.036316 496.580566,87.011322 507.833527,86.986328 
	C508.216278,91.033821 508.599060,95.081322 508.657074,99.909264 
	C508.221954,101.840729 508.015564,102.991730 508.015381,104.142769 
	C508.010986,129.111740 508.029541,154.080704 508.018738,179.489410 
	C507.889954,181.827087 507.786072,183.725006 507.680115,185.661484 
	C496.116058,185.661484 485.123291,185.661484 474.130493,185.661484 
M278.783173,142.300735 
	C277.303680,141.867523 275.826019,141.064819 274.344421,141.057449 
	C256.775360,140.969818 239.205612,140.972900 221.636459,141.049713 
	C220.100418,141.056427 218.567398,141.752182 217.008408,142.973831 
	C216.928421,148.576614 218.279938,153.495941 222.808914,157.348862 
	C231.963791,165.137146 250.296921,162.763687 256.259064,155.189499 
	C259.298676,151.328018 262.357758,151.376709 266.446289,153.716370 
	C271.912201,156.844177 277.748962,159.323837 282.554779,161.658386 
	C281.366730,155.542068 280.157837,149.318420 278.783173,142.300735 
M343.454895,159.097321 
	C344.854797,158.759979 346.373810,158.665924 347.636353,158.047943 
	C361.279785,151.369934 362.817902,135.803818 356.637207,124.285851 
	C352.138580,115.902512 344.269470,112.842499 335.149536,114.108017 
	C326.164215,115.354843 319.618591,120.634857 316.463715,129.153564 
	C313.245178,137.844009 314.817963,146.121475 320.830444,153.276123 
	C326.678162,160.234711 334.553070,160.740829 343.454895,159.097321 
M429.032837,138.333054 
	C429.357269,139.416519 429.858887,140.480759 429.978912,141.586395 
	C431.247345,153.273636 438.160706,157.966766 445.655182,159.695908 
	C454.128082,161.650772 465.654205,158.330154 470.228088,150.429565 
	C474.816864,142.503220 475.599152,134.340759 471.829193,126.308685 
	C467.545868,117.182930 455.776062,111.150436 444.712982,115.059151 
	C434.059753,118.823074 429.937653,126.967842 429.032837,138.333054 
M223.644379,123.000519 
	C233.741959,123.000519 243.839539,123.000519 254.438843,123.000519 
	C248.875916,108.488083 242.547440,104.916206 229.186310,108.056648 
	C222.162292,109.707611 217.469421,114.346825 218.336060,123.000519 
	C219.751587,123.000519 221.218506,123.000519 223.644379,123.000519 
z"/>
<path fill="#FFDE5B" opacity="1.000000" stroke="none" 
	d="
M847.090332,118.064575 
	C847.854614,117.747253 849.111572,117.615250 849.310913,117.085403 
	C853.768738,105.236259 861.367920,96.185532 872.476562,89.969048 
	C880.070251,85.719574 887.968933,84.123680 896.730103,83.675232 
	C905.921448,83.204781 914.201233,85.088211 922.645264,87.894188 
	C937.849609,92.946686 946.407654,104.067451 950.921387,118.712997 
	C952.526733,123.921867 953.206055,129.452026 953.901367,134.887527 
	C954.175354,137.029449 953.338684,139.313446 952.181824,141.691528 
	C942.865723,141.912674 934.375610,141.975037 925.885437,142.037415 
	C911.428467,142.037415 896.971497,142.037415 882.532532,142.037415 
	C880.750244,152.763702 886.685791,159.807358 897.489502,161.132141 
	C904.109558,161.943924 910.364136,161.836868 916.324280,158.836227 
	C918.319702,157.831635 920.282532,156.384369 921.690613,154.671249 
	C924.444824,151.320358 927.316223,151.487335 930.783752,153.280106 
	C937.209656,156.602295 943.723206,159.755005 950.582886,163.302078 
	C950.961609,164.123138 950.957642,164.620377 950.953674,165.117630 
	C945.812073,170.405457 941.257019,176.494507 935.389038,180.789993 
	C926.964294,186.957047 916.835449,189.415329 906.371765,190.000626 
	C891.843140,190.813293 878.274963,188.320267 866.396912,179.114838 
	C858.657166,173.116531 852.494507,166.053955 848.938477,156.124542 
	C848.504333,154.625381 848.123474,153.829910 847.742676,153.034454 
	C847.013794,162.466507 846.862854,171.704468 847.086853,180.933350 
	C847.178589,184.711731 846.254395,186.291077 842.132324,186.088150 
	C835.346191,185.754074 828.531616,185.997467 821.729065,185.997223 
	C814.308838,185.996964 814.339233,185.995285 813.962402,178.805817 
	C813.915833,177.917648 813.338074,177.057327 813.006470,176.184097 
	C805.176270,184.843643 795.442871,189.345917 783.771606,190.050781 
	C775.448975,190.553391 767.381714,189.701675 759.938721,185.923462 
	C749.237122,180.491089 740.076050,173.408829 736.538635,161.158371 
	C733.044373,165.255600 729.786743,169.609406 725.987610,173.423981 
	C716.737976,182.711334 705.445007,187.487320 692.376953,189.158005 
	C678.247070,190.964447 664.770996,189.797073 651.716309,184.029663 
	C642.570007,179.988953 635.543030,173.622437 629.826904,165.443558 
	C619.551270,150.740768 618.945190,134.295547 624.553284,118.696442 
	C630.819824,101.266182 644.731628,90.076683 662.906067,85.110435 
	C666.786133,84.050201 670.941345,83.831253 674.991455,83.592812 
	C684.140747,83.054184 693.193909,83.758751 702.017151,86.461685 
	C716.818481,90.995934 728.339233,99.558243 735.280884,113.460350 
	C738.376953,108.613739 740.943420,103.193260 744.768738,98.892471 
	C753.449707,89.132545 764.078064,83.998642 777.811279,83.609772 
	C788.053284,83.319756 796.788391,85.873611 805.490295,90.196678 
	C807.067871,90.980392 808.350952,92.336571 809.848511,93.307259 
	C811.538086,94.402390 813.027344,94.734627 813.027466,91.019180 
	C813.134644,66.853149 813.190247,43.542892 813.691101,20.166656 
	C825.052612,20.093248 835.968811,20.085814 846.924438,20.540546 
	C847.006042,53.356670 847.048218,85.710625 847.090332,118.064575 
M918.667786,121.157082 
	C916.624207,115.365173 913.860107,110.151451 907.541687,108.011833 
	C895.498901,103.933746 886.337219,109.011070 882.708984,122.604309 
	C894.141846,122.724655 905.574646,122.865311 917.007812,122.913780 
	C917.677795,122.916626 918.350952,122.174942 918.667786,121.157082 
M659.011414,142.105515 
	C662.685791,158.333160 674.819824,162.290527 687.131348,159.309448 
	C701.648071,155.794434 710.304382,137.467407 699.575073,123.235527 
	C689.958496,110.479515 673.546326,111.374695 664.227722,122.014801 
	C659.078430,127.894272 658.738037,134.264008 659.011414,142.105515 
M769.009949,141.137360 
	C770.413025,147.534348 772.124573,153.586899 778.560242,157.161011 
	C787.785583,162.284317 796.851135,160.822556 804.756836,155.402161 
	C812.375305,150.178680 814.419739,141.635880 812.960510,132.581314 
	C810.183960,115.353371 791.039856,109.340973 778.591858,117.744637 
	C770.298340,123.343620 768.695068,131.245956 769.009949,141.137360 
z"/>
<path fill="#FFDE5B" opacity="1.000000" stroke="none" 
	d="
M513.130249,82.771271 
	C513.130249,82.771271 512.986816,82.544945 513.105225,81.929855 
	C513.244873,62.624729 513.248596,43.934631 513.316284,25.244764 
	C513.322632,23.482132 513.730774,21.720957 514.424255,19.987936 
	C525.949646,19.992628 537.003113,19.968489 548.056641,19.944351 
	C548.056641,19.944351 547.993469,19.985466 547.925964,20.420315 
	C547.898499,41.972267 547.938538,63.089371 547.978577,84.206474 
	C547.978577,84.206474 548.007080,84.568787 547.685547,85.080498 
	C547.273804,95.075897 547.183533,104.559593 547.093262,114.043282 
	C547.093262,115.981674 547.093262,117.920067 547.093262,119.858459 
	C556.459290,98.983368 571.514954,85.096489 594.566223,83.595215 
	C613.865601,82.338287 628.349426,87.404366 633.736023,93.647949 
	C629.830872,101.657204 625.989868,109.534935 622.158691,117.392342 
	C607.079834,110.127701 595.415222,111.202240 585.868225,123.684647 
	C580.982910,130.072083 581.540955,145.734406 586.967163,152.439270 
	C594.853760,162.184189 605.709351,163.882462 621.728516,156.796753 
	C625.716675,164.568619 629.728027,172.385773 634.316711,181.327789 
	C629.054138,183.487915 623.821533,186.456055 618.201355,187.785294 
	C602.770691,191.434799 587.483215,191.387161 573.245972,183.016525 
	C562.889587,176.927582 554.099548,169.352524 549.773682,157.622620 
	C549.528564,156.958099 548.079651,156.737503 547.121582,157.108337 
	C547.042603,165.867889 546.908386,173.832169 547.083435,181.789658 
	C547.156006,185.088837 545.953430,186.080292 542.750366,186.033646 
	C533.132812,185.893585 523.511292,186.019058 513.891357,186.040939 
	C513.891357,186.040939 513.968079,186.035767 513.972473,185.597321 
	C513.983826,152.620163 514.002991,120.081451 513.960754,87.542816 
	C513.958679,85.951942 513.419434,84.361771 513.130249,82.771271 
z"/>
<path fill="#FFDE5C" opacity="1.000000" stroke="none" 
	d="
M950.972351,165.567017 
	C950.957642,164.620377 950.961609,164.123138 950.951965,163.253387 
	C950.307678,154.364746 964.358704,142.738770 975.018555,145.224213 
	C984.535522,147.443176 991.193420,151.798096 994.701111,161.123062 
	C997.797241,169.353729 993.338928,181.255768 985.742310,186.146515 
	C972.800232,194.478561 958.668579,188.911285 953.080322,178.271637 
	C951.248108,174.783112 951.624573,170.134506 950.972351,165.567017 
z"/>
<path fill="#FFEFB6" opacity="1.000000" stroke="none" 
	d="
M16.001949,87.006897 
	C16.001890,118.062843 16.076506,149.119171 15.916151,180.174286 
	C15.893733,184.515869 16.735310,186.368408 21.588980,186.134567 
	C30.371016,185.711472 39.186928,185.991608 48.684677,185.945374 
	C49.380657,185.912643 49.851456,185.911865 49.851456,185.911865 
	C48.941792,186.272598 48.034546,186.939728 47.122089,186.946915 
	C37.465725,187.023102 27.806244,186.874496 18.152781,187.058533 
	C14.730539,187.123795 13.748521,185.738571 13.975245,182.615326 
	C14.392147,176.872284 14.948718,171.117828 14.927338,165.370071 
	C14.901611,158.454254 14.095283,151.541199 14.073506,144.625549 
	C14.054883,138.711258 14.922601,132.795166 14.926837,126.879524 
	C14.930929,121.165413 14.176042,115.454620 14.038671,109.735550 
	C13.870928,102.751968 13.955819,95.760674 14.052465,88.774391 
	C14.065159,87.856827 14.793729,86.949158 15.597843,86.313538 
	C16.004951,86.590164 16.001949,87.006897 16.001949,87.006897 
z"/>
<path fill="#FFEDA7" opacity="1.000000" stroke="none" 
	d="
M358.474548,178.093613 
	C358.630371,177.444824 359.215912,176.773499 360.579071,175.210648 
	C360.907501,179.297379 361.150238,182.317749 361.442139,185.949677 
	C371.591461,185.949677 381.536072,186.062210 391.467957,185.758713 
	C392.365295,185.731277 393.882050,183.039597 393.919434,181.555176 
	C394.148590,172.456772 394.034180,163.349731 394.738098,154.050415 
	C395.134277,154.849945 395.530457,155.649475 395.942627,156.781754 
	C395.638824,159.248306 395.003418,161.390182 395.057953,163.514359 
	C395.226624,170.087006 395.630035,176.654495 396.000824,183.220673 
	C396.155151,185.953140 395.097687,187.079483 392.244019,187.049393 
	C381.634521,186.937531 371.023193,187.004791 360.560272,187.004791 
	C359.969696,183.818893 359.436981,180.944992 358.474548,178.093613 
z"/>
<path fill="#FFEDAC" opacity="1.000000" stroke="none" 
	d="
M513.071289,83.260590 
	C513.419434,84.361771 513.958679,85.951942 513.960754,87.542816 
	C514.002991,120.081451 513.983826,152.620163 513.970093,185.635696 
	C513.641968,184.600494 513.042664,183.088898 513.040405,181.576370 
	C512.990845,148.967606 513.007996,116.358742 513.071289,83.260590 
z"/>
<path fill="#FFECA7" opacity="1.000000" stroke="none" 
	d="
M847.469971,117.849121 
	C847.048218,85.710625 847.006042,53.356670 847.165405,20.522215 
	C847.366943,20.041714 847.849060,20.029716 847.849060,20.029716 
	C847.849243,52.564369 847.849426,85.099022 847.469971,117.849121 
z"/>
<path fill="#FFFFFF" opacity="1.000000" stroke="none" 
	d="
M395.380127,109.959167 
	C394.929047,82.303452 394.871704,54.423267 394.797852,26.543133 
	C394.792572,24.557173 394.666962,22.571531 394.322937,20.071171 
	C394.048584,19.556597 394.028229,19.167311 394.028229,19.167307 
	C394.685394,19.933325 395.916351,20.698935 395.916901,21.465427 
	C395.937988,50.888477 395.846466,80.311600 395.380127,109.959167 
z"/>
<path fill="#FFEDAC" opacity="1.000000" stroke="none" 
	d="
M813.008301,176.633057 
	C813.338074,177.057327 813.915833,177.917648 813.962402,178.805817 
	C814.339233,185.995285 814.308838,185.996964 821.729065,185.997223 
	C828.531616,185.997467 835.346191,185.754074 842.132324,186.088150 
	C846.254395,186.291077 847.178589,184.711731 847.086853,180.933350 
	C846.862854,171.704468 847.013794,162.466507 847.742676,153.034454 
	C848.123474,153.829910 848.504333,154.625381 848.910034,155.749664 
	C848.621887,157.565796 848.052795,159.050522 848.037903,160.540817 
	C847.951538,169.177185 847.995667,177.814850 847.995667,186.726959 
	C836.388855,186.726959 824.984558,186.726959 813.010071,186.726959 
	C813.010071,183.601715 813.010071,180.341858 813.008301,176.633057 
z"/>
<path fill="#FFFF80" opacity="1.000000" stroke="none" 
	d="
M508.043701,179.049667 
	C508.029541,154.080704 508.010986,129.111740 508.015381,104.142769 
	C508.015564,102.991730 508.221954,101.840729 508.583862,100.365036 
	C508.885620,126.048897 508.935822,152.057434 508.715027,178.539795 
	C508.444061,179.013626 508.043701,179.049667 508.043701,179.049667 
z"/>
<path fill="#FFEBA1" opacity="1.000000" stroke="none" 
	d="
M514.110718,186.425827 
	C523.511292,186.019058 533.132812,185.893585 542.750366,186.033646 
	C545.953430,186.080292 547.156006,185.088837 547.083435,181.789658 
	C546.908386,173.832169 547.042603,165.867889 547.073853,157.438797 
	C547.375916,157.326279 547.884583,157.669846 547.903076,158.037994 
	C548.298767,165.923965 548.626343,173.813293 548.996948,181.700577 
	C549.172913,185.446259 547.942444,187.254074 543.685974,187.099915 
	C533.910034,186.745865 524.116455,186.876709 514.110718,186.425827 
z"/>
<path fill="#FFFFFF" opacity="1.000000" stroke="none" 
	d="
M359.576782,20.120815 
	C360.033600,44.162788 360.102417,68.408470 360.131134,92.654198 
	C360.131805,93.219215 359.681244,93.784775 359.152466,94.160782 
	C358.909149,71.242119 358.950531,48.512737 359.007294,25.783400 
	C359.011841,23.963638 359.122498,22.144144 359.576782,20.120815 
z"/>
<path fill="#FFFFFF" opacity="1.000000" stroke="none" 
	d="
M813.245789,20.232632 
	C813.190247,43.542892 813.134644,66.853149 813.016479,90.634979 
	C812.636902,90.432716 812.042908,89.758759 812.043213,89.085060 
	C812.053772,65.840912 812.120361,42.596771 812.642639,19.526567 
	C813.152832,19.877878 813.199341,20.055256 813.245789,20.232632 
z"/>
<path fill="#FFFDF3" opacity="1.000000" stroke="none" 
	d="
M548.370239,83.980576 
	C547.938538,63.089371 547.898499,41.972267 547.945435,20.388023 
	C548.351990,20.420622 548.951782,20.920759 548.951050,21.420048 
	C548.921631,42.198303 548.838379,62.976486 548.370239,83.980576 
z"/>
<path fill="#FFFFFF" opacity="1.000000" stroke="none" 
	d="
M513.952393,19.959105 
	C513.730774,21.720957 513.322632,23.482132 513.316284,25.244764 
	C513.248596,43.934631 513.244873,62.624729 513.143433,81.801437 
	C512.708801,81.279411 512.048462,80.271683 512.045227,79.261879 
	C511.984039,59.962818 511.987549,40.663471 512.046082,21.364393 
	C512.048462,20.589655 512.723633,19.816956 513.514771,19.303856 
	C513.944275,19.564405 513.952393,19.959105 513.952393,19.959105 
z"/>
<path fill="#FFFCF0" opacity="1.000000" stroke="none" 
	d="
M116.879898,185.885010 
	C116.920242,167.439026 116.950485,148.993011 117.015572,130.547104 
	C117.022560,128.565369 117.232147,126.584335 117.595612,124.258476 
	C117.843895,144.818893 117.844315,165.723816 117.402664,186.493713 
	C116.960602,186.358673 116.879898,185.885010 116.879898,185.885010 
z"/>
<path fill="#FFEEB3" opacity="1.000000" stroke="none" 
	d="
M150.290741,185.821671 
	C160.257263,185.884369 170.225769,185.853134 180.189163,186.063766 
	C183.414673,186.131958 184.098862,184.704468 184.048584,181.868347 
	C183.975266,177.732285 184.237244,173.590286 184.615417,169.092255 
	C185.249741,173.314529 185.560974,177.901764 186.020889,182.474075 
	C186.369293,185.937653 185.055634,187.143417 181.496658,187.070251 
	C171.334885,186.861359 161.166000,186.996918 150.574661,186.662964 
	C150.196503,186.159851 150.243622,185.990753 150.290741,185.821671 
z"/>
<path fill="#FFF4CC" opacity="1.000000" stroke="none" 
	d="
M82.104828,125.525558 
	C82.447517,126.995323 82.959549,128.924088 82.966064,130.854553 
	C83.027130,148.950638 83.001686,167.047028 82.985794,185.617645 
	C82.646629,184.765656 82.044540,183.440048 82.041130,182.112900 
	C81.992943,163.403839 82.026184,144.694580 82.104828,125.525558 
z"/>
<path fill="#FFE686" opacity="1.000000" stroke="none" 
	d="
M49.920044,185.456909 
	C49.851456,185.911865 49.380657,185.912643 49.145264,185.895813 
	C48.940254,167.635971 48.961411,149.392929 49.015385,131.149994 
	C49.020737,129.340210 49.226357,127.531029 49.583405,125.396210 
	C49.881397,145.047882 49.935013,165.024918 49.920044,185.456909 
z"/>
<path fill="#FFFFFE" opacity="1.000000" stroke="none" 
	d="
M150.242554,185.368835 
	C150.243622,185.990753 150.196503,186.159851 150.116364,186.589951 
	C149.721985,185.440445 149.051178,184.031006 149.046188,182.619217 
	C148.981766,164.382584 149.012146,146.145615 149.092468,127.440819 
	C149.502487,128.687668 150.123169,130.401154 150.130798,132.117371 
	C150.209015,149.716660 150.187805,167.316376 150.242554,185.368835 
z"/>
<path fill="#FFEFB3" opacity="1.000000" stroke="none" 
	d="
M508.018738,179.489410 
	C508.043701,179.049667 508.444061,179.013626 508.644775,179.003357 
	C508.845520,181.460449 508.845520,183.927826 508.845520,186.614960 
	C497.355225,186.614960 485.745789,186.614960 474.133423,186.138214 
	C485.123291,185.661484 496.116058,185.661484 507.680115,185.661484 
	C507.786072,183.725006 507.889954,181.827087 508.018738,179.489410 
z"/>
<path fill="#FFF1BF" opacity="1.000000" stroke="none" 
	d="
M813.691101,20.166656 
	C813.199341,20.055256 813.152832,19.877878 813.070923,19.427841 
	C824.576904,19.158813 836.118347,19.162441 847.754395,19.597893 
	C847.849060,20.029716 847.366943,20.041714 847.125977,20.060047 
	C835.968811,20.085814 825.052612,20.093248 813.691101,20.166656 
z"/>
<path fill="#FFF0BB" opacity="1.000000" stroke="none" 
	d="
M507.710327,86.569244 
	C496.580566,87.011322 485.327637,87.036316 473.616333,87.070007 
	C473.907135,86.719536 474.655792,86.049271 475.405579,86.048004 
	C486.132660,86.029785 496.859894,86.101837 507.710327,86.569244 
z"/>
<path fill="#FFF1BE" opacity="1.000000" stroke="none" 
	d="
M16.470396,87.000717 
	C16.001949,87.006897 16.004951,86.590164 16.005558,86.381790 
	C26.603312,86.117065 37.200504,86.036705 47.797512,86.056389 
	C48.532932,86.057762 49.266972,86.803078 49.922188,87.650116 
	C47.948544,87.728989 46.057972,87.064835 44.159565,87.041611 
	C35.087154,86.930634 26.012621,86.993484 16.470396,87.000717 
z"/>
<path fill="#FFEEAF" opacity="1.000000" stroke="none" 
	d="
M116.422318,185.926727 
	C116.879898,185.885010 116.960602,186.358673 116.977539,186.598297 
	C105.771423,186.833298 94.548378,186.828705 83.121452,186.431335 
	C93.933296,186.015198 104.949020,185.991821 116.422318,185.926727 
z"/>
<path fill="#FFEBA0" opacity="1.000000" stroke="none" 
	d="
M514.424255,19.987936 
	C513.952393,19.959105 513.944275,19.564405 513.949036,19.367069 
	C525.192200,19.163359 536.430542,19.156986 547.862793,19.547482 
	C537.003113,19.968489 525.949646,19.992628 514.424255,19.987936 
z"/>
<path fill="#FFEB9E" opacity="1.000000" stroke="none" 
	d="
M393.564545,19.082890 
	C394.028229,19.167311 394.048584,19.556597 394.055481,19.751217 
	C383.001740,19.986546 371.941040,20.027256 360.411743,20.005386 
	C361.257416,19.621826 362.569763,19.032560 363.886444,19.022701 
	C373.624084,18.949795 383.362610,18.992270 393.564545,19.082890 
z"/>
<path fill="#FFEBA0" opacity="1.000000" stroke="none" 
	d="
M547.467041,113.823227 
	C547.183533,104.559593 547.273804,95.075897 547.609375,85.245453 
	C547.849976,94.466850 547.845398,104.035004 547.467041,113.823227 
z"/>
<path fill="#FFFFEE" opacity="1.000000" stroke="none" 
	d="
M926.097534,142.427155 
	C934.375610,141.975037 942.865723,141.912674 951.853882,141.883392 
	C950.704224,142.275223 949.059021,142.927368 947.408325,142.941742 
	C940.376343,143.002945 933.342651,142.875473 926.097534,142.427155 
z"/>
<path fill="#FFEEB3" opacity="1.000000" stroke="none" 
	d="
M184.933487,165.841675 
	C184.465393,163.625153 184.054443,160.975754 183.643478,158.326355 
	C183.924057,158.204880 184.204620,158.083405 184.485199,157.961914 
	C184.922302,158.477936 185.359390,158.993973 185.875305,159.807434 
	C185.632965,161.872833 185.311783,163.640823 184.933487,165.841675 
z"/>
<path fill="#FFEFB3" opacity="1.000000" stroke="none" 
	d="
M474.085938,178.289368 
	C474.292511,179.426483 474.440643,181.003052 474.366516,182.861862 
	C474.105347,181.672348 474.066406,180.200592 474.085938,178.289368 
z"/>
<path fill="#FFEEB3" opacity="1.000000" stroke="none" 
	d="
M185.222717,168.206787 
	C184.882782,168.092865 184.836670,167.796661 184.860016,167.054932 
	C185.125168,167.081100 185.320847,167.552826 185.222717,168.206787 
z"/>
<path fill="#FFEFB3" opacity="1.000000" stroke="none" 
	d="
M473.161682,176.945190 
	C473.219543,176.841751 473.587280,176.832855 474.005249,177.072144 
	C473.860809,177.226776 473.666168,177.133255 473.161682,176.945190 
z"/>
<path fill="#FFEFB3" opacity="1.000000" stroke="none" 
	d="
M473.770294,183.819351 
	C474.104736,183.936142 474.142334,184.217789 474.123566,184.923309 
	C473.869263,184.892868 473.671326,184.438538 473.770294,183.819351 
z"/>
<path fill="#000000" opacity="1.000000" stroke="none" 
	d="
M343.134033,159.393600 
	C334.553070,160.740829 326.678162,160.234711 320.830444,153.276123 
	C314.817963,146.121475 313.245178,137.844009 316.463715,129.153564 
	C319.618591,120.634857 326.164215,115.354843 335.149536,114.108017 
	C344.269470,112.842499 352.138580,115.902512 356.637207,124.285851 
	C362.817902,135.803818 361.279785,151.369934 347.636353,158.047943 
	C346.373810,158.665924 344.854797,158.759979 343.134033,159.393600 
z"/>
<path fill="#000000" opacity="1.000000" stroke="none" 
	d="
M429.030579,137.894806 
	C429.937653,126.967842 434.059753,118.823074 444.712982,115.059151 
	C455.776062,111.150436 467.545868,117.182930 471.829193,126.308685 
	C475.599152,134.340759 474.816864,142.503220 470.228088,150.429565 
	C465.654205,158.330154 454.128082,161.650772 445.655182,159.695908 
	C438.160706,157.966766 431.247345,153.273636 429.978912,141.586395 
	C429.858887,140.480759 429.357269,139.416519 429.030579,137.894806 
z"/>
<path fill="#000000" opacity="1.000000" stroke="none" 
	d="
M278.948975,143.094757 
	C280.157837,149.318420 281.366730,155.542068 282.554779,161.658386 
	C277.748962,159.323837 271.912201,156.844177 266.446289,153.716370 
	C262.357758,151.376709 259.298676,151.328018 256.259064,155.189499 
	C250.296921,162.763687 231.963791,165.137146 222.808914,157.348862 
	C218.279938,153.495941 216.928421,148.576614 217.484283,142.493225 
	C236.575455,142.008438 255.190857,141.975616 273.805847,142.047760 
	C275.521545,142.054398 277.234650,142.729858 278.948975,143.094757 
z"/>
<path fill="#000000" opacity="1.000000" stroke="none" 
	d="
M223.164902,123.000519 
	C221.218506,123.000519 219.751587,123.000519 218.336060,123.000519 
	C217.469421,114.346825 222.162292,109.707611 229.186310,108.056648 
	C242.547440,104.916206 248.875916,108.488083 254.438843,123.000519 
	C243.839539,123.000519 233.741959,123.000519 223.164902,123.000519 
z"/>
<path fill="#FFE47B" opacity="1.000000" stroke="none" 
	d="
M278.866089,142.697754 
	C277.234650,142.729858 275.521545,142.054398 273.805847,142.047760 
	C255.190857,141.975616 236.575455,142.008438 217.496582,142.070251 
	C218.567398,141.752182 220.100418,141.056427 221.636459,141.049713 
	C239.205612,140.972900 256.775360,140.969818 274.344421,141.057449 
	C275.826019,141.064819 277.303680,141.867523 278.866089,142.697754 
z"/>
<path fill="#000000" opacity="1.000000" stroke="none" 
	d="
M659.009705,141.650055 
	C658.738037,134.264008 659.078430,127.894272 664.227722,122.014801 
	C673.546326,111.374695 689.958496,110.479515 699.575073,123.235527 
	C710.304382,137.467407 701.648071,155.794434 687.131348,159.309448 
	C674.819824,162.290527 662.685791,158.333160 659.009705,141.650055 
z"/>
<path fill="#000000" opacity="1.000000" stroke="none" 
	d="
M769.011963,140.684647 
	C768.695068,131.245956 770.298340,123.343620 778.591858,117.744637 
	C791.039856,109.340973 810.183960,115.353371 812.960510,132.581314 
	C814.419739,141.635880 812.375305,150.178680 804.756836,155.402161 
	C796.851135,160.822556 787.785583,162.284317 778.560242,157.161011 
	C772.124573,153.586899 770.413025,147.534348 769.011963,140.684647 
z"/>
<path fill="#000000" opacity="1.000000" stroke="none" 
	d="
M882.162415,122.017784 
	C886.337219,109.011070 895.498901,103.933746 907.541687,108.011833 
	C913.860107,110.151451 916.624207,115.365173 918.381348,121.569344 
	C906.117371,121.993660 894.139893,122.005722 882.162415,122.017784 
z"/>
<path fill="#FFF1C5" opacity="1.000000" stroke="none" 
	d="
M882.435669,122.311050 
	C894.139893,122.005722 906.117371,121.993660 918.558716,121.880669 
	C918.350952,122.174942 917.677795,122.916626 917.007812,122.913780 
	C905.574646,122.865311 894.141846,122.724655 882.435669,122.311050 
z"/>
</svg>